# Blender 3.5.1
# www.blender.org
o building_003
v -750.000000 0.000000 300.000000
v 750.000000 0.000000 300.000000
v -750.000000 0.000000 -300.000000
v 750.000000 0.000000 -300.000000
v -750.000000 300.000000 300.000000
v 750.000000 300.000000 300.000000
v 750.000000 300.000000 -300.000000
v -750.000000 300.000000 -300.000000
v -750.000000 600.000000 300.000000
v 750.000000 600.000000 300.000000
v 750.000000 600.000000 -300.000000
v -750.000000 600.000000 -300.000000
v -750.000000 900.000000 300.000000
v 750.000000 900.000000 300.000000
v 750.000000 900.000000 -300.000000
v -750.000000 900.000000 -300.000000
v -750.000000 1200.000000 300.000000
v 750.000000 1200.000000 300.000000
v 750.000000 1200.000000 -300.000000
v -750.000000 1200.000000 -300.000000
v -750.000000 1500.000000 300.000000
v 750.000000 1500.000000 300.000000
v 750.000000 1500.000000 -300.000000
v -750.000000 1500.000000 -300.000000
v -750.000000 1800.000000 300.000000
v 750.000000 1800.000000 300.000000
v 750.000000 1800.000000 -300.000000
v -750.000000 1800.000000 -300.000000
v -750.000000 2100.000000 300.000000
v 750.000000 2100.000000 300.000000
v 750.000000 2100.000000 -300.000000
v -750.000000 2100.000000 -300.000000
v -750.000000 2400.000000 300.000000
v 750.000000 2400.000000 300.000000
v 750.000000 2400.000000 -300.000000
v -750.000000 2400.000000 -300.000000
v -750.000000 2700.000000 300.000000
v 750.000000 2700.000000 300.000000
v 750.000000 2700.000000 -300.000000
v -750.000000 2700.000000 -300.000000
v -750.000000 3000.000000 300.000000
v 750.000000 3000.000000 300.000000
v 750.000000 3000.000000 -300.000000
v -750.000000 3000.000000 -300.000000
vn -0.0000 1.0000 -0.0000
vn 1.0000 -0.0000 -0.0000
vn -1.0000 -0.0000 -0.0000
vn -0.0000 -0.0000 -1.0000
vn -0.0000 -0.0000 1.0000
vt 0.288887 -0.555563
vt -0.027781 -0.555563
vt 0.288887 -0.555563
vt 1.027781 -0.555563
vt 0.711113 -0.555563
vt -0.027781 -0.555563
vt 0.711113 -0.555563
vt 1.027781 -0.555563
vt -0.027781 -0.344450
vt 0.288887 -0.344450
vt 1.027781 -0.344450
vt 0.288887 -0.344450
vt 0.711113 -0.344450
vt 1.027781 -0.344450
vt 0.711113 -0.344450
vt -0.027781 -0.344450
vt 0.288887 -0.133338
vt -0.027781 -0.133338
vt 0.288887 -0.133338
vt 1.027781 -0.133338
vt 0.711113 -0.133338
vt 1.027781 -0.133338
vt 0.711113 -0.133338
vt -0.027781 -0.133338
vt -0.027781 0.077775
vt 0.288887 0.077775
vt 1.027781 0.077775
vt 0.288887 0.077775
vt 1.027781 0.077775
vt 0.711113 0.077775
vt -0.027781 0.077775
vt 0.711113 0.077775
vt 0.288887 0.288887
vt -0.027781 0.288887
vt 0.288887 0.288887
vt 1.027781 0.288887
vt 0.711113 0.288887
vt 1.027781 0.288887
vt 0.711113 0.288887
vt -0.027781 0.288887
vt -0.027781 0.500000
vt 0.288887 0.500000
vt 0.288887 0.500000
vt 1.027781 0.500000
vt 0.711113 0.500000
vt 1.027781 0.500000
vt -0.027781 0.500000
vt 0.711113 0.500000
vt -0.027781 0.711113
vt 0.288887 0.711113
vt 1.027781 0.711113
vt 0.288887 0.711113
vt 1.027781 0.711113
vt 0.711113 0.711113
vt -0.027781 0.711113
vt 0.711113 0.711113
vt 0.288887 0.922225
vt -0.027781 0.922225
vt 0.288887 0.922225
vt 1.027781 0.922225
vt 0.711113 0.922225
vt 1.027781 0.922225
vt 0.711113 0.922225
vt -0.027781 0.922225
vt -0.027781 1.133338
vt 0.288887 1.133338
vt 1.027781 1.133338
vt 0.288887 1.133338
vt 1.027781 1.133338
vt 0.711113 1.133338
vt -0.027781 1.133338
vt 0.711113 1.133338
vt -0.027781 1.344450
vt 0.288887 1.344450
vt 1.027781 1.344450
vt 0.288887 1.344450
vt 0.711113 1.344450
vt 1.027781 1.344450
vt 0.711113 1.344450
vt -0.027781 1.344450
vt -0.027781 0.288887
vt -0.027781 1.555563
vt 0.288887 1.555563
vt 1.027781 0.288887
vt 1.027781 1.555563
vt 0.288887 1.555563
vt 1.027781 0.711113
vt 1.027781 1.555563
vt 0.711113 1.555563
vt -0.027781 0.711113
vt -0.027781 1.555563
vt 0.711113 1.555563
s 1
f 41/81/1 42/84/1 43/87/1 44/90/1
f 2/3/2 4/7/2 7/13/2 6/12/2
f 3/5/3 1/1/3 5/10/3 8/15/3
f 4/8/4 3/6/4 8/16/4 7/14/4
f 1/2/5 2/4/5 6/11/5 5/9/5
f 5/9/5 6/11/5 10/20/5 9/18/5
f 8/15/3 5/10/3 9/17/3 12/23/3
f 6/12/2 7/13/2 11/21/2 10/19/2
f 7/14/4 8/16/4 12/24/4 11/22/4
f 12/23/3 9/17/3 13/26/3 16/32/3
f 10/19/2 11/21/2 15/30/2 14/28/2
f 11/22/4 12/24/4 16/31/4 15/29/4
f 9/18/5 10/20/5 14/27/5 13/25/5
f 15/29/4 16/31/4 20/40/4 19/38/4
f 13/25/5 14/27/5 18/36/5 17/34/5
f 16/32/3 13/26/3 17/33/3 20/39/3
f 14/28/2 15/30/2 19/37/2 18/35/2
f 20/39/3 17/33/3 21/42/3 24/48/3
f 18/35/2 19/37/2 23/45/2 22/43/2
f 19/38/4 20/40/4 24/47/4 23/46/4
f 17/34/5 18/36/5 22/44/5 21/41/5
f 22/43/2 23/45/2 27/54/2 26/52/2
f 23/46/4 24/47/4 28/55/4 27/53/4
f 21/41/5 22/44/5 26/51/5 25/49/5
f 24/48/3 21/42/3 25/50/3 28/56/3
f 27/53/4 28/55/4 32/64/4 31/62/4
f 25/49/5 26/51/5 30/60/5 29/58/5
f 28/56/3 25/50/3 29/57/3 32/63/3
f 26/52/2 27/54/2 31/61/2 30/59/2
f 32/63/3 29/57/3 33/66/3 36/72/3
f 30/59/2 31/61/2 35/70/2 34/68/2
f 31/62/4 32/64/4 36/71/4 35/69/4
f 29/58/5 30/60/5 34/67/5 33/65/5
f 35/69/4 36/71/4 40/80/4 39/78/4
f 33/65/5 34/67/5 38/75/5 37/73/5
f 36/72/3 33/66/3 37/74/3 40/79/3
f 34/68/2 35/70/2 39/77/2 38/76/2
f 40/80/4 44/91/4 43/88/4
f 37/73/5 38/75/5 42/85/5 41/82/5
f 40/79/3 37/74/3 41/83/3 44/92/3
f 38/76/2 39/77/2 43/89/2
f 39/78/4 40/80/4 43/88/4
f 42/86/2 38/76/2 43/89/2
