# Blender 3.5.1
# www.blender.org
mtllib building.mtl
o building_004
v -700.000000 0.000098 600.000000
v 700.000000 0.000098 600.000000
v -700.000000 -0.000098 -600.000000
v 700.000000 -0.000098 -600.000000
v -700.000000 600.000122 599.999878
v 700.000000 600.000122 599.999878
v 700.000000 599.999878 -600.000122
v -700.000000 599.999878 -600.000122
v -700.000000 1200.000122 599.999817
v 700.000000 1200.000122 599.999817
v 700.000000 1199.999878 -600.000183
v -700.000000 1199.999878 -600.000183
v -700.000000 1800.000122 599.999695
v 700.000000 1800.000122 599.999695
v 700.000000 1799.999878 -600.000305
v -700.000000 1799.999878 -600.000305
v -700.000000 2400.000000 599.999634
v 700.000000 2400.000000 599.999634
v 700.000000 2400.000000 -600.000366
v -700.000000 2400.000000 -600.000366
v -700.000000 3000.000000 599.999512
v 700.000000 3000.000000 599.999512
v 700.000000 3000.000000 -600.000488
v -700.000000 3000.000000 -600.000488
v -700.000000 3600.000000 599.999390
v 700.000000 3600.000000 599.999390
v 700.000000 3600.000000 -600.000610
v -700.000000 3600.000000 -600.000610
v -700.000000 4200.000000 599.999329
v 700.000000 4200.000000 599.999329
v 700.000000 4200.000000 -600.000671
v -700.000000 4200.000000 -600.000671
v -700.000000 4800.000000 599.999207
v 700.000000 4800.000000 599.999207
v 700.000000 4800.000000 -600.000793
v -700.000000 4800.000000 -600.000793
vn -0.0000 1.0000 -0.0000
vn 1.0000 -0.0000 -0.0000
vn -1.0000 -0.0000 -0.0000
vn -0.0000 -0.0000 -1.0000
vn -0.0000 -0.0000 1.0000
vt -0.069072 -1.261301
vt -0.144834 -1.261301
vt -0.069072 -1.261301
vt 0.915832 -1.261301
vt 0.840070 -1.261301
vt -0.144834 -1.261301
vt 0.840070 -1.261301
vt 0.915832 -1.261301
vt -0.144834 -0.806730
vt -0.069072 -0.806730
vt 0.915832 -0.806730
vt -0.069072 -0.806730
vt 0.840070 -0.806730
vt 0.915832 -0.806730
vt 0.840070 -0.806730
vt -0.144834 -0.806730
vt -0.069072 -0.352159
vt -0.144834 -0.352159
vt -0.069072 -0.352159
vt 0.915832 -0.352159
vt 0.840070 -0.352159
vt 0.915832 -0.352159
vt 0.840070 -0.352159
vt -0.144834 -0.352159
vt -0.144834 0.102413
vt -0.069072 0.102413
vt 0.915832 0.102413
vt -0.069072 0.102413
vt 0.915832 0.102413
vt 0.840070 0.102413
vt -0.144834 0.102413
vt 0.840070 0.102413
vt -0.069072 0.556984
vt -0.144834 0.556984
vt -0.069072 0.556984
vt 0.915832 0.556984
vt 0.840070 0.556984
vt 0.915832 0.556984
vt 0.840070 0.556984
vt -0.144834 0.556984
vt -0.144834 1.011555
vt -0.069072 1.011555
vt -0.069072 1.011555
vt 0.915832 1.011555
vt 0.840070 1.011555
vt 0.915832 1.011555
vt -0.144834 1.011555
vt 0.840070 1.011555
vt -0.144834 1.466126
vt -0.069072 1.466126
vt 0.915832 1.466126
vt -0.069072 1.466126
vt 0.915832 1.466126
vt 0.840070 1.466126
vt -0.144834 1.466126
vt 0.840070 1.466126
vt -0.069072 1.920697
vt -0.144834 1.920697
vt -0.069072 1.920697
vt 0.915832 1.920697
vt 0.840070 1.920697
vt 0.915832 1.920697
vt 0.840070 1.920697
vt -0.144834 1.920697
vt -0.144834 0.102413
vt -0.069072 2.375268
vt -0.144834 2.375268
vt 0.915832 0.102413
vt -0.069072 2.375268
vt 0.915832 2.375268
vt 0.915832 1.011555
vt 0.840070 2.375268
vt 0.915832 2.375268
vt -0.144834 1.011555
vt 0.840070 2.375268
vt -0.144834 2.375268
s 1
usemtl Material.003
f 2/3/2 4/7/2 7/13/2 6/12/2
f 3/5/3 1/1/3 5/10/3 8/15/3
f 4/8/4 3/6/4 8/16/4 7/14/4
f 1/2/5 2/4/5 6/11/5 5/9/5
f 5/9/5 6/11/5 10/20/5 9/18/5
f 8/15/3 5/10/3 9/17/3 12/23/3
f 6/12/2 7/13/2 11/21/2 10/19/2
f 7/14/4 8/16/4 12/24/4 11/22/4
f 12/23/3 9/17/3 13/26/3 16/32/3
f 10/19/2 11/21/2 15/30/2 14/28/2
f 11/22/4 12/24/4 16/31/4 15/29/4
f 9/18/5 10/20/5 14/27/5 13/25/5
f 15/29/4 16/31/4 20/40/4 19/38/4
f 13/25/5 14/27/5 18/36/5 17/34/5
f 16/32/3 13/26/3 17/33/3 20/39/3
f 14/28/2 15/30/2 19/37/2 18/35/2
f 20/39/3 17/33/3 21/42/3 24/48/3
f 18/35/2 19/37/2 23/45/2 22/43/2
f 19/38/4 20/40/4 24/47/4 23/46/4
f 17/34/5 18/36/5 22/44/5 21/41/5
f 22/43/2 23/45/2 27/54/2 26/52/2
f 23/46/4 24/47/4 28/55/4 27/53/4
f 21/41/5 22/44/5 26/51/5 25/49/5
f 24/48/3 21/42/3 25/50/3 28/56/3
f 27/53/4 28/55/4 32/64/4 31/62/4
f 25/49/5 26/51/5 30/60/5 29/58/5
f 28/56/3 25/50/3 29/57/3 32/63/3
f 26/52/2 27/54/2 31/61/2 30/59/2
f 32/63/3 29/57/3 33/66/3 36/75/3
f 30/59/2 31/61/2 35/72/2 34/69/2
f 31/62/4 32/64/4 36/76/4 35/73/4
f 29/58/5 30/60/5 34/70/5 33/67/5
usemtl Material.075
f 33/65/1 34/68/1 35/71/1 36/74/1
