# Blender 3.5.1
# www.blender.org
mtllib building1.mtl
o building_1
v -3.000000 0.000001 -3.000000
v -3.000000 9.000001 -2.999999
v 3.000000 9.000001 -3.000000
v 3.000000 0.000001 -3.000000
v 3.000000 8.999999 3.000000
v 3.000000 -0.000001 3.000000
v 3.200000 9.500001 -3.200000
v -3.200001 9.500001 -3.199999
v -3.458941 9.861368 -3.458938
v 3.458940 9.861368 -3.458939
v 3.075753 8.999999 3.075753
v -3.075752 8.999999 3.075754
v -3.000000 8.999999 3.000001
v 3.200000 9.124249 -3.200000
v -3.200001 9.124249 -3.199999
v -3.200000 9.124246 3.200001
v -3.200000 9.499999 3.200001
v 3.200001 9.124246 3.200000
v 3.200001 9.499999 3.200000
v 3.458941 9.861366 3.458940
v -3.458940 9.861366 3.458941
v -2.900001 9.658767 -2.899999
v -2.900000 9.658767 2.900001
v 2.900001 9.658767 2.900000
v 2.900000 9.658767 -2.900000
v 2.900000 10.229820 -2.900000
v -2.900001 10.229820 -2.899999
v 2.900001 10.229820 2.900000
v -2.900000 10.229820 2.900001
v -3.458941 10.229821 -3.458938
v 3.458940 10.229821 -3.458939
v 3.458941 10.229819 3.458940
v -3.458940 10.229819 3.458941
v 3.075752 9.000001 -3.075753
v -3.075753 9.000001 -3.075752
v -3.163610 9.036392 -3.163608
v 3.163609 9.036392 -3.163609
v -3.163609 9.036390 3.163610
v 3.163610 9.036390 3.163609
v -3.000000 -0.000001 3.000000
v 0.852000 1.898000 2.701999
v 0.852000 -0.000001 2.702000
v 0.852000 -0.000001 2.599000
v 0.852000 1.898000 2.599000
v 2.148000 -0.000001 2.702000
v 2.148000 1.898000 2.701999
v 2.148000 1.898000 2.598999
v 2.148000 -0.000001 2.599000
v 0.883715 2.184792 2.701999
v 0.852000 2.000000 2.701999
v 0.852000 2.000000 2.582000
v 0.883715 2.184792 2.582000
v 2.024244 2.351496 2.702000
v 1.880885 2.483792 2.702000
v 1.880885 2.483792 2.582000
v 2.024244 2.351496 2.582000
v 1.500000 2.598000 2.702000
v 1.299757 2.568732 2.702000
v 1.299757 2.568732 2.582000
v 1.500000 2.598000 2.582000
v 0.975757 2.351496 2.702001
v 0.975757 2.351496 2.582000
v 2.116286 2.184792 2.701999
v 2.116286 2.184792 2.581999
v 1.700243 2.568732 2.702000
v 1.700243 2.568732 2.582000
v 1.119115 2.483792 2.702001
v 1.119115 2.483792 2.582000
v 2.148000 2.000000 2.701999
v 2.148000 2.000000 2.581999
v 1.500000 2.700000 3.000000
v 1.731763 2.665740 3.000000
v 2.250000 2.000000 2.701999
v 2.213292 2.216311 2.702000
v 1.500000 2.700000 2.702000
v 2.250000 2.000000 2.999999
v 2.213292 2.216311 3.000000
v 0.893237 2.411449 3.000000
v 0.786708 2.216311 3.000000
v 0.786708 2.216311 2.702001
v 0.893237 2.411449 2.702001
v 0.750000 2.000000 3.000000
v 0.750000 -0.000001 3.000000
v 0.750000 -0.000001 2.702000
v 0.750000 2.000000 2.701999
v 2.106763 2.411449 3.000000
v 2.106763 2.411449 2.702000
v 1.940840 2.566311 3.000000
v 1.940839 2.566311 2.702000
v 1.731763 2.665740 2.702000
v 2.250000 -0.000001 3.000000
v 1.268237 2.665740 3.000000
v 1.268237 2.665740 2.702000
v 1.059161 2.566311 3.000000
v 1.059161 2.566311 2.702001
v 2.250000 -0.000001 2.702000
vn -0.0000 -0.0000 -1.0000
vn 1.0000 -0.0000 -0.0000
vn -0.0000 -0.5825 -0.8129
vn -0.0000 -0.9756 0.2197
vn -0.0000 -0.9603 0.2791
vn -0.0000 -1.0000 -0.0000
vn -0.0000 -0.0779 -0.9970
vn -0.9970 -0.0779 -0.0000
vn -1.0000 -0.0000 -0.0000
vn -0.0000 -0.0779 0.9970
vn -0.0000 -0.0000 1.0000
vn -0.0000 -0.5825 0.8129
vn -0.0000 1.0000 -0.0000
vn 0.8129 -0.5825 -0.0000
vn -0.8129 -0.5825 -0.0000
vn -0.0000 -0.9603 -0.2791
vn -0.0000 -0.9756 -0.2197
vn -0.0000 -0.7042 -0.7100
vn -0.2197 -0.9756 -0.0000
vn -0.2791 -0.9603 -0.0000
vn -0.7100 -0.7042 -0.0000
vn -0.0000 -0.7042 0.7100
vn 0.2197 -0.9756 -0.0000
vn 0.7100 -0.7042 -0.0000
vn 0.9970 -0.0779 -0.0000
vn 0.9434 -0.3318 -0.0000
vn 0.9856 -0.1692 -0.0000
vn 0.9434 -0.3317 -0.0000
vn -0.7857 -0.6187 -0.0000
vn -0.5568 -0.8306 -0.0000
vn 0.2878 -0.9577 -0.0000
vn 0.2882 -0.9576 -0.0000
vn 0.7857 -0.6186 -0.0000
vn 0.7857 -0.6187 -0.0000
vn -0.9433 -0.3320 -0.0000
vn -0.9432 -0.3321 -0.0000
vn -0.2878 -0.9577 -0.0000
vn 0.5568 -0.8306 -0.0000
vn -0.9856 -0.1691 -0.0000
vn -0.9999 -0.0166 -0.0000
vn -0.9445 -0.3285 -0.0000
vn 0.7892 -0.6142 -0.0000
vn 0.9444 -0.3289 -0.0000
vn 0.9445 -0.3286 -0.0000
vn 0.9999 -0.0166 -0.0000
vn -0.7891 -0.6143 -0.0000
vn -0.5614 -0.8275 -0.0000
vn -0.2902 -0.9570 -0.0000
vn 0.2901 -0.9570 -0.0000
vn 0.5612 -0.8276 -0.0000
vt 0.410819 0.410092
vt 0.273516 0.683971
vt 0.410819 0.000363
vt 0.273516 0.274242
vt 0.419462 0.852641
vt 0.679095 0.821272
vt 0.683972 0.000363
vt 0.683972 0.820547
vt 0.419515 0.821308
vt 0.305575 0.285094
vt 0.683972 0.410092
vt 0.683972 0.410817
vt 0.410819 0.820547
vt 0.274241 0.285067
vt 0.410094 0.000363
vt 0.305611 0.544797
vt 0.410819 0.410817
vt 0.000363 0.000365
vt 0.738143 0.568286
vt 0.410819 0.851881
vt 0.759108 0.276924
vt 0.336172 0.274242
vt 0.738143 0.276924
vt 0.689920 0.851881
vt 0.410819 0.883202
vt 0.801036 0.568286
vt 0.758382 0.265136
vt 0.838775 0.580075
vt 0.407116 0.274242
vt 0.821275 0.580074
vt 0.758382 0.580074
vt 0.838775 0.265136
vt 0.693921 0.529908
vt 0.779346 0.265136
vt 0.278875 0.280479
vt 0.310201 0.548055
vt 0.278888 0.547959
vt 0.683778 0.857218
vt 0.000363 0.274242
vt 0.274277 0.544647
vt 0.679165 0.852606
vt 0.410094 0.273516
vt 0.410819 0.835494
vt 0.319779 0.274242
vt 0.689920 0.835494
vt 0.410819 0.866810
vt 0.690018 0.866810
vt 0.288463 0.553343
vt 0.690018 0.883203
vt 0.304850 0.553343
vt 0.780072 0.568286
vt 0.801036 0.276924
vt 0.288463 0.274242
vt 0.319779 0.553441
vt 0.304850 0.274242
vt 0.780072 0.276924
vt 0.759107 0.568286
vt 0.336172 0.553441
vt 0.800311 0.265136
vt 0.711420 0.529908
vt 0.693921 0.844848
vt 0.779346 0.580074
vt 0.800311 0.580074
vt 0.711420 0.844848
vt 0.407116 0.589181
vt 0.821275 0.265136
vt 0.948745 0.264410
vt 0.684697 0.529183
vt 0.711420 0.265136
vt 0.684697 0.264410
vt 0.711420 0.529183
vt 0.389617 0.538289
vt 0.684697 0.000363
vt 0.336897 0.274242
vt 0.389617 0.274242
vt 0.948745 0.000363
vt 0.684697 0.265136
vt 0.336897 0.538289
vt 0.710695 0.265136
vt 0.362894 0.538289
vt 0.289858 0.710143
vt 0.710695 0.529183
vt 0.737418 0.265136
vt 0.289858 0.974191
vt 0.362894 0.274242
vt 0.363620 0.274242
vt 0.025809 0.710142
vt 0.737418 0.529183
vt 0.363620 0.538289
vt 0.025811 0.974191
vt 0.822001 0.580075
vt 0.390342 0.274242
vt 0.315304 0.999637
vt 0.822001 0.265136
vt 0.710695 0.529908
vt 0.315304 0.684696
vt 0.728194 0.529908
vt 0.710695 0.844848
vt 0.000363 0.684696
vt 0.728194 0.844848
vt 0.390343 0.589181
vt 0.000365 0.999637
vt 0.416203 0.825919
vt 0.310187 0.280481
vt 0.416205 0.857232
vt 0.683683 0.825906
vt 0.688067 0.830651
vt 0.412394 0.861969
vt 0.412393 0.830655
vt 0.314934 0.276096
vt 0.688164 0.861965
vt 0.283624 0.551769
vt 0.283619 0.276095
vt 0.314938 0.551866
vt 0.000363 0.683971
vt 0.000363 0.273514
vt 0.689386 0.529908
vt 0.394011 0.684696
vt 0.310752 0.620326
vt 0.689386 0.616315
vt 0.397159 0.620326
vt 0.320718 0.689340
vt 0.684697 0.616315
vt 0.360648 0.555956
vt 0.316029 0.689340
vt 0.684697 0.529908
vt 0.394011 0.689385
vt 0.274241 0.555956
vt 0.689386 0.617040
vt 0.397159 0.679327
vt 0.320718 0.748341
vt 0.689386 0.703447
vt 0.335010 0.684696
vt 0.310752 0.679327
vt 0.684697 0.703447
vt 0.335010 0.689385
vt 0.274241 0.614957
vt 0.684697 0.617040
vt 0.360648 0.614957
vt 0.316029 0.748341
vt 0.407116 0.670143
vt 0.297696 0.621770
vt 0.407116 0.678679
vt 0.728919 0.588909
vt 0.306109 0.620326
vt 0.401653 0.678679
vt 0.734382 0.588909
vt 0.389617 0.539014
vt 0.401653 0.670143
vt 0.381204 0.540458
vt 0.407116 0.607111
vt 0.290107 0.673693
vt 0.407116 0.615992
vt 0.284084 0.667167
vt 0.401653 0.615992
vt 0.367592 0.585855
vt 0.401653 0.607111
vt 0.373615 0.592381
vt 0.407116 0.634293
vt 0.278884 0.649827
vt 0.407116 0.643506
vt 0.280217 0.640711
vt 0.401653 0.643506
vt 0.363725 0.559398
vt 0.401653 0.634293
vt 0.362393 0.568515
vt 0.407116 0.661474
vt 0.290107 0.625960
vt 0.401653 0.661474
vt 0.373615 0.544648
vt 0.407116 0.598442
vt 0.297696 0.677883
vt 0.401653 0.598442
vt 0.381205 0.596571
vt 0.407116 0.625080
vt 0.280217 0.658943
vt 0.401653 0.625080
vt 0.363725 0.577631
vt 0.407116 0.652593
vt 0.284084 0.632487
vt 0.401653 0.652593
vt 0.367592 0.551175
vt 0.407116 0.589906
vt 0.728919 0.529908
vt 0.306109 0.679327
vt 0.401653 0.589906
vt 0.734382 0.529908
vt 0.389617 0.598015
vt 0.839500 0.407835
vt 0.123282 0.068652
vt 0.839500 0.418500
vt 0.121722 0.058102
vt 0.853066 0.459483
vt 0.306109 0.683971
vt 0.853066 0.449494
vt 0.296261 0.682300
vt 0.853066 0.407835
vt 0.274241 0.649827
vt 0.839500 0.459483
vt 0.091415 0.034509
vt 0.839500 0.449494
vt 0.101262 0.036180
vt 0.839500 0.376296
vt 0.110147 0.096273
vt 0.839500 0.366175
vt 0.101263 0.101122
vt 0.853066 0.366175
vt 0.296261 0.617354
vt 0.853066 0.376296
vt 0.287377 0.622204
vt 0.839500 0.356186
vt 0.091415 0.102793
vt 0.839500 0.265136
vt 0.000364 0.102793
vt 0.334285 0.684696
vt 0.853066 0.265136
vt 0.397159 0.615682
vt 0.320718 0.684696
vt 0.853066 0.356186
vt 0.306109 0.615683
vt 0.839500 0.439373
vt 0.110146 0.041030
vt 0.853066 0.439373
vt 0.287377 0.677450
vt 0.839500 0.429040
vt 0.117196 0.048584
vt 0.853066 0.429040
vt 0.280327 0.669896
vt 0.853066 0.418500
vt 0.275801 0.660378
vt 0.839500 0.550534
vt 0.000363 0.034510
vt 0.334285 0.752984
vt 0.839500 0.397169
vt 0.121723 0.079202
vt 0.853066 0.397169
vt 0.275801 0.639276
vt 0.839500 0.386629
vt 0.117197 0.088719
vt 0.853066 0.386629
vt 0.280327 0.629757
vt 0.853066 0.550534
vt 0.397159 0.683971
vt 0.320718 0.752984
s 1
g building_1_Material.004
usemtl Material.004
f 1/1/1 2/3/1 3/7/1 4/11/1
f 4/12/2 3/8/2 5/13/2 6/17/2
f 7/19/3 8/23/3 9/27/3 10/31/3
f 11/35/4 12/37/5 13/40/6
f 14/43/7 15/45/7 8/24/1 7/20/1
f 15/46/8 16/47/8 17/49/9 8/25/9
f 16/48/10 18/53/10 19/55/11 17/50/11
f 17/51/12 19/56/12 20/59/12 21/63/12
f 22/67/13 23/70/13 24/73/13 25/76/13
f 25/77/11 26/79/11 27/82/11 22/68/11
f 28/85/9 26/80/9 25/78/9 24/74/9
f 29/88/2 23/71/2 22/69/2 27/83/2
f 10/32/1 9/28/1 30/91/1 31/94/1
f 21/64/11 20/60/11 32/97/11 33/100/11
f 20/61/2 10/33/2 31/95/2 32/98/2
f 9/29/9 21/65/9 33/101/9 30/92/9
f 19/57/14 7/21/14 10/34/14 20/62/14
f 8/26/15 17/52/15 21/66/15 9/30/15
f 34/103/16 35/106/17 36/107/18 37/109/18
f 37/109/18 36/107/18 15/45/7 14/43/7
f 35/105/19 12/38/20 38/111/21 36/108/21
f 36/108/21 38/111/21 16/47/8 15/46/8
f 12/37/5 11/35/4 39/113/22 38/112/22
f 38/112/22 39/113/22 18/53/10 16/48/10
f 11/36/23 34/104/23 37/110/24 39/114/24
f 39/114/24 37/110/24 14/44/25 18/54/25
f 18/54/25 14/44/25 7/22/2 19/58/2
f 28/86/1 24/75/1 23/72/1 29/89/1
f 35/106/17 34/103/16 3/9/6
f 40/115/9 13/39/9 2/4/9 1/2/9
f 41/117/2 42/120/2 43/123/2 44/126/2
f 45/129/9 46/132/9 47/135/9 48/138/9
f 46/133/6 41/118/6 44/127/6 47/136/6
f 49/141/26 50/143/27 51/146/27 52/149/28
f 53/151/29 54/153/30 55/155/30 56/157/29
f 57/159/6 58/161/31 59/163/32 60/165/6
f 61/167/33 49/141/26 52/149/28 62/169/34
f 63/171/35 53/151/29 56/157/29 64/173/36
f 65/175/37 57/159/6 60/165/6 66/177/37
f 67/179/38 61/167/33 62/169/34 68/181/38
f 69/183/39 63/171/35 64/173/36 70/186/39
f 50/144/13 69/184/13 70/187/13 51/147/13
f 54/153/30 65/175/37 66/177/37 55/155/30
f 58/161/31 67/179/38 68/181/38 59/163/32
f 62/170/11 52/150/11 51/148/11
f 5/15/11 71/190/11 72/192/11
f 48/139/11 47/137/11 44/128/11 43/124/11
f 73/194/11 74/196/11 63/172/11 69/185/11
f 31/96/13 27/84/13 26/81/13
f 29/90/13 30/93/13 33/102/13
f 58/162/11 57/160/11 75/198/11
f 76/199/40 77/201/41 74/195/41 73/193/40
f 78/203/42 79/205/43 80/207/44 81/209/42
f 82/211/45 83/213/2 84/216/2 85/219/45
f 77/201/41 86/221/46 87/223/46 74/195/41
f 86/221/46 88/225/47 89/227/47 87/223/46
f 88/225/47 72/191/48 90/229/48 89/227/47
f 72/191/48 71/189/6 75/197/6 90/229/48
f 91/233/13 45/131/13 42/122/13
f 71/189/6 92/234/49 93/236/49 75/197/6
f 92/234/49 94/238/50 95/240/50 93/236/49
f 79/205/43 82/211/45 85/219/45 80/207/44
f 94/238/50 78/203/42 81/209/42 95/240/50
f 91/231/9 76/199/40 73/193/40 96/242/9
f 12/38/20 35/105/19 13/41/6
f 13/40/6 5/14/6 11/35/4
f 2/5/6 13/41/6 35/105/19
f 3/9/6 2/6/6 35/106/17
f 51/148/11 70/188/11 60/166/11
f 70/188/11 64/174/11 56/158/11
f 60/166/11 70/188/11 66/178/11
f 56/158/11 55/156/11 70/188/11
f 55/156/11 66/178/11 70/188/11
f 60/166/11 59/164/11 51/148/11
f 59/164/11 68/182/11 51/148/11
f 68/182/11 62/170/11 51/148/11
f 5/15/11 13/42/11 92/235/11
f 13/42/11 40/116/11 78/204/11
f 78/204/11 40/116/11 79/206/11
f 40/116/11 83/214/11 82/212/11
f 40/116/11 82/212/11 79/206/11
f 91/232/11 6/18/11 76/200/11
f 6/18/11 5/15/11 77/202/11
f 76/200/11 6/18/11 77/202/11
f 13/42/11 78/204/11 94/239/11
f 86/222/11 77/202/11 5/15/11
f 13/42/11 94/239/11 92/235/11
f 88/226/11 86/222/11 5/15/11
f 72/192/11 88/226/11 5/15/11
f 5/15/11 92/235/11 71/190/11
f 28/87/13 32/99/13 31/96/13
f 31/96/13 30/93/13 27/84/13
f 26/81/13 28/87/13 31/96/13
f 33/102/13 32/99/13 28/87/13
f 29/90/13 27/84/13 30/93/13
f 33/102/13 28/87/13 29/90/13
f 73/194/11 69/185/11 46/134/11
f 69/185/11 50/145/11 46/134/11
f 45/130/11 96/243/11 46/134/11
f 96/243/11 73/194/11 46/134/11
f 84/217/11 42/121/11 41/119/11
f 41/119/11 46/134/11 50/145/11
f 84/217/11 41/119/11 85/220/11
f 41/119/11 50/145/11 85/220/11
f 80/208/11 85/220/11 50/145/11
f 95/241/11 81/210/11 61/168/11
f 81/210/11 80/208/11 49/142/11
f 75/198/11 93/237/11 58/162/11
f 93/237/11 95/241/11 67/180/11
f 58/162/11 93/237/11 67/180/11
f 89/228/11 90/230/11 54/154/11
f 90/230/11 75/198/11 65/176/11
f 74/196/11 87/224/11 63/172/11
f 87/224/11 89/228/11 53/152/11
f 53/152/11 89/228/11 54/154/11
f 53/152/11 63/172/11 87/224/11
f 80/208/11 50/145/11 49/142/11
f 65/176/11 54/154/11 90/230/11
f 81/210/11 49/142/11 61/168/11
f 57/160/11 65/176/11 75/198/11
f 95/241/11 61/168/11 67/180/11
f 84/218/13 83/215/13 42/122/13
f 83/215/13 91/233/13 42/122/13
f 91/233/13 96/244/13 45/131/13
f 45/131/13 48/140/13 43/125/13
f 45/131/13 43/125/13 42/122/13
f 5/16/6 3/10/6 34/104/23 11/36/23
